General

Format : MPEG-4
Format profile : Base Media
Codec ID : isom
File size : 700 MiB
Duration : 1h 38mn
Overall bit rate : 993 Kbps


Video

ID : 1
Format : AVC
Format/Info : Advanced Video Codec
Format profile : High@L3.0
Format settings, CABAC : Yes
Format settings, ReFrames : 3 frames
Codec ID : avc1
Codec ID/Info : Advanced Video Coding
Duration : 1h 38mn
Bit rate mode : Variable
Bit rate : 903 Kbps
Maximum bit rate : 4 543 Kbps
Width : 688 pixels
Height : 352 pixels
Display aspect ratio : 1.955
Frame rate mode : Constant
Frame rate : 23.976 fps
Resolution : 24 bits
Colorimetry : 4:2:0
Scan type : Progressive
Bits/(Pixel*Frame) : 0.156
Stream size : 637 MiB (91%)
Title : Video
Writing library : x264 core 79 r1354 636f98f


Audio

ID : 2
Format : AAC
Format/Info : Advanced Audio Codec
Format version : Version 4
Format profile : LC
Format settings, SBR : No
Codec ID : 40
Duration : 1h 38mn
Bit rate mode : Variable
Bit rate : 86.1 Kbps
Maximum bit rate : 116 Kbps
Channel(s) : 2 channels
Channel positions : L R
Sampling rate : 48.0 KHz
Resolution : 16 bits
Stream size : 60.7 MiB (9%)
Title : English
Language : English 

Screenshots
